<svg width="19" height="19" viewBox="0 0 19 19" fill="none" xmlns="http://www.w3.org/2000/svg">
<path d="M15 2C15 0.9 14.1 0 13 0C11.9 0 11 0.9 11 2C11 2.4 11.12 2.77 11.32 3.09L7.08 7.71L3.96 6.32C3.98 6.21 3.99 6.1 3.99 5.99C3.99 4.89 3.09 3.99 1.99 3.99C0.89 3.99 0 4.9 0 6C0 7.1 0.9 8 2 8C2.63 8 3.19 7.7 3.56 7.24L6.37 8.49L2.93 12.24C2.65 12.09 2.34 12 2 12C0.9 12 0 12.9 0 14C0 15.1 0.9 16 2 16C3.1 16 4 15.1 4 14C4 13.89 3.98 13.78 3.97 13.67L9.44 11.24C9.81 11.7 10.36 12 11 12C11.06 12 11.11 11.99 11.16 11.98L10.75 15.02C9.76 15.14 8.99 15.97 8.99 17C8.99 18.1 9.89 19 10.99 19C12.09 19 12.99 18.1 12.99 17C12.99 16.16 12.47 15.45 11.74 15.15L12.22 11.57C12.69 11.2 12.99 10.64 12.99 10C12.99 9.55 12.84 9.14 12.59 8.81L13.23 3.98C14.22 3.86 14.99 3.03 14.99 2H15ZM12.07 3.76C12.13 3.79 12.19 3.83 12.25 3.85L11.68 8.12C11.47 8.04 11.24 7.99 11 7.99C10.37 7.99 9.81 8.29 9.44 8.75L8.05 8.13L12.07 3.76ZM3.99 12.57L7.34 8.92L9.04 9.67C9.02 9.78 9.01 9.88 9.01 10C9.01 10.12 9.03 10.22 9.04 10.33L4 12.57H3.99Z" fill="#6B6C6E"/>
<path d="M17 16C18.1046 16 19 15.1046 19 14C19 12.8954 18.1046 12 17 12C15.8954 12 15 12.8954 15 14C15 15.1046 15.8954 16 17 16Z" fill="#6B6C6E"/>
</svg>
